<svg width="100" height="100" viewBox="0 0 100 100" fill="none" xmlns="http://www.w3.org/2000/svg">
<path d="M27.5 49.6792C48.6375 10.2875 74.9583 9.83335 85.4708 14.5292C90.1667 25.0458 89.7125 51.3625 50.3208 72.5C49.9125 70.15 47.6417 64 41.8208 58.1792C36 52.3583 29.85 50.0875 27.5 49.6792Z" stroke="white" stroke-width="1.5" stroke-linecap="round" stroke-linejoin="round"/>
<path d="M55.625 70.625C63.2875 74.375 64.1042 81.1 65.1667 87.5C65.1667 87.5 81.2083 75.6416 70.9458 59.375M29.375 44.6958C25.625 37.0333 18.9 36.2166 12.5 35.1541C12.5 35.1541 24.3625 19.1125 40.625 29.375M25.075 62.1333C22.9417 64.2625 19.3167 70.45 21.875 78.125C29.5542 80.6833 35.7375 77.0583 37.875 74.9291M72.0833 35.2083C72.0833 33.2744 71.3151 31.4198 69.9477 30.0523C68.5802 28.6849 66.7255 27.9166 64.7917 27.9166C62.8578 27.9166 61.0031 28.6849 59.6357 30.0523C58.2682 31.4198 57.5 33.2744 57.5 35.2083C57.5 37.1422 58.2682 38.9968 59.6357 40.3643C61.0031 41.7317 62.8578 42.5 64.7917 42.5C66.7255 42.5 68.5802 41.7317 69.9477 40.3643C71.3151 38.9968 72.0833 37.1422 72.0833 35.2083Z" stroke="white" stroke-width="1.5" stroke-linecap="round" stroke-linejoin="round"/>
</svg>
