<svg width="100" height="100" viewBox="0 0 100 100" fill="none" xmlns="http://www.w3.org/2000/svg">
<g clip-path="url(#clip0_7_112)">
<path fill-rule="evenodd" clip-rule="evenodd" d="M20.4 4.67142C21.7571 -1.52857 30.5929 -1.57143 32.0071 4.62143L32.0786 4.93571L32.2214 5.55C33.0815 9.22166 35.003 12.5591 37.7466 15.1463C40.4901 17.7336 43.9343 19.4564 47.65 20.1C54.1143 21.2214 54.1143 30.5071 47.65 31.6286C43.9133 32.2757 40.4516 34.0141 37.701 36.6249C34.9504 39.2357 33.0339 42.6021 32.1929 46.3L32.0071 47.1071C30.5929 53.3 21.7643 53.2571 20.4 47.0571L20.2571 46.3643C19.4413 42.6569 17.5416 39.2757 14.7994 36.6506C12.0573 34.0255 8.59658 32.2749 4.85714 31.6214C-1.6 30.4929 -1.6 21.2357 4.85714 20.1071C8.58235 19.4553 12.031 17.7146 14.768 15.1048C17.5049 12.4949 19.4075 9.13288 20.2357 5.44285L20.35 4.93571L20.4 4.67142ZM75.9714 25.8286C77.9503 24.9976 80.1331 24.78 82.237 25.2041C84.341 25.6282 86.2691 26.6744 87.7714 28.2071L87.7857 28.2143L96.8286 37.3357C97.8285 38.3312 98.6219 39.5145 99.1634 40.8175C99.7048 42.1205 99.9835 43.5176 99.9835 44.9286C99.9835 46.3396 99.7048 47.7367 99.1634 49.0397C98.6219 50.3427 97.8285 51.5259 96.8286 52.5214L96.8143 52.5357L52.55 97.0857C51.9541 97.6863 51.1644 98.0559 50.3214 98.1286L28.8929 99.9857C28.3741 100.03 27.852 99.961 27.3629 99.7826C26.8738 99.6041 26.4296 99.3209 26.0615 98.9528C25.6933 98.5847 25.4102 98.1405 25.2317 97.6514C25.0533 97.1623 24.984 96.6401 25.0286 96.1214L26.8857 74.6929C26.9584 73.8499 27.328 73.0602 27.9286 72.4643L72.4786 28.2C73.472 27.1865 74.6639 26.3804 75.9714 25.8286Z" fill="white"/>
</g>
<defs>
<clipPath id="clip0_7_112">
<rect width="100" height="100" fill="white"/>
</clipPath>
</defs>
</svg>
