<svg width="100" height="100" viewBox="0 0 100 100" fill="none" xmlns="http://www.w3.org/2000/svg">
<path d="M29.1666 27.0833H69.7916C78.5708 27.0833 82.9583 27.0833 86.1125 29.1916C87.476 30.1031 88.6469 31.2739 89.5583 32.6375C91.2958 35.2375 91.6 37.9625 91.6541 43.75M50 27.0833L47.3625 21.8041C45.175 17.4291 43.175 13.0291 38.3291 11.2125C36.2083 10.4166 33.7833 10.4166 28.9333 10.4166C21.3666 10.4166 17.5833 10.4166 14.7416 12C12.717 13.1297 11.0464 14.8003 9.91665 16.825C8.33331 19.6666 8.33331 23.45 8.33331 31.0166V43.75C8.33331 63.3916 8.33331 73.2125 14.4333 79.3125C20.0916 84.975 28.9333 85.3875 45.8333 85.4166M72.9166 52.0833C66.975 52.0833 63.125 55.8708 58.575 57.25C56.725 57.8083 55.8 58.0916 55.425 58.4875C55.05 58.8833 54.9416 59.4583 54.7208 60.6125C52.375 72.9833 57.5041 84.4166 69.7416 88.8625C71.0541 89.3458 71.7125 89.5833 72.9208 89.5833C74.1291 89.5833 74.7833 89.3458 76.1 88.8666C88.3333 84.4166 93.4583 72.9833 91.1125 60.6166C90.8916 59.4583 90.7791 58.8791 90.4083 58.4875C90.0375 58.0958 89.1083 57.8083 87.2583 57.25C82.7041 55.8708 78.8541 52.0833 72.9166 52.0833Z" stroke="white" stroke-width="1.5" stroke-linecap="round" stroke-linejoin="round"/>
</svg>
